<svg width="32" height="33" viewBox="0 0 32 33" fill="none" xmlns="http://www.w3.org/2000/svg">
<path d="M0 10.1286C0.00332159 7.57594 1.01883 5.1288 2.82382 3.32381C4.62881 1.51883 7.07594 0.503322 9.62858 0.5L31.8735 0.5V5.39589H9.62858C8.37543 5.40248 7.17548 5.90322 6.28935 6.78935C5.40322 7.67547 4.90249 8.87543 4.89589 10.1286V18.3449C4.79556 19.3984 4.34863 20.3889 3.62511 21.1613C2.90159 21.9337 1.94234 22.4443 0.89758 22.6131L0 22.7449V10.1286Z" fill="white"/>
<path d="M0 32.3045V27.4148H22.2386C23.4961 27.4132 24.7018 26.9138 25.5922 26.0258C26.4826 25.1378 26.9852 23.9334 26.9902 22.6759V14.8801C26.9956 13.7483 27.4032 12.6553 28.1402 11.7964C28.8773 10.9374 29.8957 10.3686 31.0136 10.1914L31.8798 10.0595V22.6759C31.8731 25.2297 30.8548 27.6768 29.0479 29.4814C27.2409 31.286 24.7924 32.3011 22.2386 32.3045H0Z" fill="white"/>
<path d="M18.8304 22.7637V16.4367L15.9368 19.9015L13.0369 16.4367V22.7637H9.1955V10.3106H12.836L15.9368 14.3152L19.0375 10.3106H22.6717V22.7637H18.8304Z" fill="white"/>
</svg>
