<svg xmlns="http://www.w3.org/2000/svg" width="20" height="20" viewBox="0 0 20 20" fill="none">
    <path fill-rule="evenodd" clip-rule="evenodd" d="M1.15002 5.99999C1.15002 5.53055 1.53058 5.14999 2.00002 5.14999H11C11.4695 5.14999 11.85 5.53055 11.85 5.99999C11.85 6.46944 11.4695 6.84999 11 6.84999H2.00002C1.53058 6.84999 1.15002 6.46944 1.15002 5.99999ZM14.15 5.99999C14.15 5.53055 14.5306 5.14999 15 5.14999H18C18.4695 5.14999 18.85 5.53055 18.85 5.99999C18.85 6.46944 18.4695 6.84999 18 6.84999H15C14.5306 6.84999 14.15 6.46944 14.15 5.99999ZM1.15002 14C1.15002 13.5306 1.53058 13.15 2.00002 13.15H5.00002C5.46947 13.15 5.85002 13.5306 5.85002 14C5.85002 14.4694 5.46947 14.85 5.00002 14.85H2.00002C1.53058 14.85 1.15002 14.4694 1.15002 14ZM8.15002 14C8.15002 13.5306 8.53058 13.15 9.00002 13.15H18C18.4695 13.15 18.85 13.5306 18.85 14C18.85 14.4694 18.4695 14.85 18 14.85H9.00002C8.53058 14.85 8.15002 14.4694 8.15002 14Z" fill="#82898F"/>
    <path fill-rule="evenodd" clip-rule="evenodd" d="M7.00002 12.85C6.3649 12.85 5.85002 13.3649 5.85002 14C5.85002 14.6351 6.3649 15.15 7.00002 15.15C7.63515 15.15 8.15002 14.6351 8.15002 14C8.15002 13.3649 7.63515 12.85 7.00002 12.85ZM4.15002 14C4.15002 12.426 5.42601 11.15 7.00002 11.15C8.57404 11.15 9.85002 12.426 9.85002 14C9.85002 15.574 8.57404 16.85 7.00002 16.85C5.42601 16.85 4.15002 15.574 4.15002 14Z" fill="#82898F"/>
    <path fill-rule="evenodd" clip-rule="evenodd" d="M13 4.84999C12.3649 4.84999 11.85 5.36487 11.85 5.99999C11.85 6.63512 12.3649 7.14999 13 7.14999C13.6352 7.14999 14.15 6.63512 14.15 5.99999C14.15 5.36487 13.6352 4.84999 13 4.84999ZM10.15 5.99999C10.15 4.42598 11.426 3.14999 13 3.14999C14.574 3.14999 15.85 4.42598 15.85 5.99999C15.85 7.57401 14.574 8.84999 13 8.84999C11.426 8.84999 10.15 7.57401 10.15 5.99999Z" fill="#82898F"/>
</svg>
