<svg xmlns="http://www.w3.org/2000/svg" width="14" height="18" viewBox="0 0 14 18" fill="none">
    <path d="M0.458679 14.625V3.375C0.458679 1.9243 1.67039 0.792134 3.11086 0.791992H8.13934C8.83454 0.792067 9.50618 1.05781 10.0054 1.53906L12.7552 4.19124C13.2553 4.6735 13.5413 5.33285 13.5414 6.02637V14.625C13.5414 16.0757 12.3296 17.2079 10.8892 17.208H3.11086C1.67039 17.2079 0.458679 16.0757 0.458679 14.625ZM8.68052 5.25C8.68052 5.35245 8.77412 5.47936 8.94419 5.47949H11.9797C11.925 5.38245 11.8559 5.29169 11.7722 5.21094L9.02232 2.55876C8.92302 2.46304 8.80682 2.38585 8.68052 2.32764V5.25ZM1.87469 14.625C1.87469 15.2452 2.40381 15.7919 3.11086 15.792H10.8892C11.5962 15.7919 12.1253 15.2452 12.1253 14.625V6.89551H8.94419C8.04067 6.89537 7.26369 6.18293 7.26369 5.25V2.20801H3.11086C2.40381 2.20815 1.87469 2.75481 1.87469 3.375V14.625Z" fill="#82898F"/>
</svg>
