<svg xmlns="http://www.w3.org/2000/svg" width="16" height="18" viewBox="0 0 16 18" fill="none">
    <path d="M7.5314 0.0285645C8.44211 0.0285645 8.95711 0.160707 9.56211 0.753564L9.63211 0.823922L14.2528 5.51964C14.8071 6.08749 14.9828 6.50678 15.0268 7.24642L15.0353 7.43821L15.0389 7.64499L15.0396 15.355C15.0396 17.0614 14.2114 17.9396 12.5475 17.9739L12.4446 17.975H3.55533C1.86533 17.975 0.995684 17.1389 0.961399 15.4589L0.960327 15.355V2.65678C0.960327 0.950707 1.7964 0.0642787 3.45283 0.0296358L3.55533 0.0285645H7.5314ZM7.34711 1.37606H3.63068C2.78783 1.37606 2.33783 1.82321 2.30926 2.60285L2.30783 2.68214V15.33C2.30783 16.14 2.7314 16.5971 3.53997 16.6257L3.62211 16.6275H12.3778C13.2203 16.6275 13.6628 16.1961 13.6907 15.4096L13.6921 15.33V7.81321H8.92068C7.91247 7.81321 7.37783 7.32357 7.34818 6.32857L7.34711 6.23928V1.37606ZM4.47354 10.7625C4.78176 10.7625 5.0314 11.0125 5.0314 11.3207V15.2279C5.0314 15.5357 4.7814 15.7857 4.47354 15.7857H3.91533C3.60711 15.7857 3.35711 15.5357 3.35711 15.2275V11.3204C3.35711 11.0125 3.60711 10.7625 3.91533 10.7625H4.47354ZM9.49676 12.4368C9.80497 12.4368 10.0546 12.6868 10.0546 12.995V15.2275C10.0546 15.5357 9.80461 15.7857 9.49676 15.7857H8.93854C8.63033 15.7857 8.38033 15.5357 8.38033 15.2275V12.9954C8.38033 12.6868 8.63033 12.4368 8.93854 12.4368H9.49676ZM6.98497 9.08821C7.29318 9.08821 7.54318 9.33821 7.54318 9.64607V15.2275C7.54318 15.5357 7.29318 15.7857 6.98497 15.7857H6.42676C6.11854 15.7857 5.8689 15.5357 5.8689 15.2275V9.64642C5.8689 9.33821 6.1189 9.08857 6.42676 9.08857L6.98497 9.08821ZM8.61104 1.63571V6.08035C8.61104 6.39571 8.72961 6.53285 9.01568 6.54785L9.0714 6.54928H13.4321L8.61104 1.63571Z" fill="#82898F"/>
</svg>
