<svg xmlns="http://www.w3.org/2000/svg" width="20" height="20" viewBox="0 0 20 20" fill="none">
    <path d="M13.9959 5.27256C13.9959 4.10438 13.0487 3.15737 11.8805 3.15723C11.447 3.15723 11.0455 3.2873 10.7109 3.50978C10.3866 3.72511 9.94861 3.63656 9.73307 3.31239C9.51774 2.98814 9.60629 2.55014 9.93046 2.3346C10.4892 1.9632 11.1609 1.74701 11.8805 1.74701C13.8275 1.74715 15.4061 3.32554 15.4061 5.27256C15.4061 6.80856 14.4239 8.11329 13.0557 8.59704C12.6886 8.72681 12.2857 8.53452 12.156 8.16736C12.0262 7.8002 12.2185 7.39739 12.5856 7.26761C13.4081 6.97683 13.9959 6.19241 13.9959 5.27256ZM19.1667 15.1441C19.1667 16.0527 18.4299 16.7892 17.5214 16.7893H16.5813C16.1918 16.7893 15.8762 16.4737 15.8762 16.0842C15.8762 15.6948 16.1918 15.3791 16.5813 15.3791H17.5214C17.6511 15.379 17.7564 15.2738 17.7564 15.1441V12.9498C16.0053 12.1692 14.1378 11.7536 12.2625 11.7039L11.8805 11.6984L11.808 11.6947C11.4525 11.6585 11.1754 11.3583 11.1754 10.9933C11.1756 10.6041 11.4912 10.2882 11.8805 10.2882L12.2992 10.2937C14.3954 10.3491 16.4832 10.821 18.4358 11.7085C18.8805 11.9106 19.1665 12.354 19.1667 12.8424V15.1441Z" fill="#6A6D71"/>
    <path d="M13.9956 14.8301C10.2557 13.1629 5.98372 13.1629 2.24378 14.8301V17.0244L2.24837 17.0721C2.27041 17.1791 2.36535 17.2594 2.47881 17.2594H13.7606C13.8904 17.2594 13.9956 17.1542 13.9956 17.0244V14.8301ZM15.4058 17.0244C15.4058 17.933 14.6692 18.6696 13.7606 18.6696H2.47881C1.62688 18.6696 0.92597 18.0221 0.84182 17.1924L0.833557 17.0244V14.7227L0.846411 14.5427C0.907002 14.1277 1.17432 13.7658 1.56346 13.5888C5.72897 11.6954 10.5104 11.6954 14.6759 13.5888C15.1204 13.791 15.4057 14.2344 15.4058 14.7227V17.0244Z" fill="#6A6D71"/>
    <path d="M10.235 7.15285C10.235 5.98459 9.28795 5.03752 8.11969 5.03752C6.95142 5.03752 6.00436 5.98459 6.00436 7.15285C6.00436 8.32111 6.95142 9.26818 8.11969 9.26818C9.28795 9.26818 10.235 8.32111 10.235 7.15285ZM11.6452 7.15285C11.6452 9.09996 10.0668 10.6784 8.11969 10.6784C6.17258 10.6784 4.59414 9.09996 4.59414 7.15285C4.59414 5.20574 6.17258 3.6273 8.11969 3.6273C10.0668 3.6273 11.6452 5.20574 11.6452 7.15285Z" fill="#6A6D71"/>
</svg>
